<svg version="1.1" id="Layer_1" xmlns="http://www.w3.org/2000/svg" xmlns:xlink="http://www.w3.org/1999/xlink" x="0px" y="0px"
	 width="100%" viewBox="0 0 558 234" enable-background="new 0 0 558 234" xml:space="preserve">
<path fill="#F4F0E9" opacity="1.000000" stroke="none" 
	d="
M389.000000,235.000000 
	C259.374084,235.000000 130.248199,235.000000 1.061149,235.000000 
	C1.061149,157.065430 1.061149,79.130791 1.061149,1.098075 
	C186.875870,1.098075 372.751801,1.098075 558.813843,1.098075 
	C558.813843,78.999641 558.813843,156.999786 558.813843,235.000000 
	C502.464203,235.000000 445.982086,235.000000 389.000000,235.000000 
M122.122711,197.598572 
	C129.468765,193.756516 136.843277,189.967682 144.153137,186.057938 
	C151.970688,181.876648 151.169815,174.177704 151.288925,167.168610 
	C151.405579,160.304626 145.234375,159.765411 140.594147,157.897339 
	C134.981415,155.637772 129.354813,153.412613 123.244301,150.977310 
	C127.516418,144.515060 132.961929,141.196365 138.941452,139.283020 
	C141.121964,138.585281 144.875320,140.063126 146.781006,141.793213 
	C151.320938,145.914810 155.008911,150.960373 159.401123,155.265305 
	C161.591278,157.411926 164.358429,159.554794 167.231888,160.319916 
	C181.034409,163.995132 194.853638,162.880157 208.606277,159.564957 
	C210.680176,159.065018 213.058914,158.690399 215.057098,159.198975 
	C228.870056,162.714493 242.531342,164.090698 256.225952,158.487427 
	C258.228668,157.667984 261.139771,157.945847 263.258301,158.726379 
	C272.478546,162.123383 281.959351,163.521591 291.698334,162.972961 
	C299.664978,162.524170 303.404541,158.895584 303.780243,151.009552 
	C304.112335,144.037842 304.161926,137.010681 303.661987,130.056488 
	C303.342163,125.608383 301.796936,121.248383 300.555481,115.764008 
	C296.626068,119.249794 293.908630,121.912949 290.926727,124.236755 
	C287.751740,126.711067 286.063690,128.687943 288.560059,133.203033 
	C290.271423,136.298233 292.610260,141.726593 287.025879,144.015945 
	C281.103088,146.443985 274.770447,145.850357 268.913330,144.168823 
	C269.603180,135.378403 270.250946,127.124138 270.898682,118.869873 
	C270.308594,118.739426 269.718536,118.608986 269.128448,118.478539 
	C263.655914,124.440681 254.828293,128.253525 257.054626,139.091431 
	C257.966736,143.531555 255.423416,144.964035 251.350204,144.905228 
	C244.520432,144.806580 237.677490,145.107971 230.861023,144.790955 
	C226.809128,144.602524 222.797256,143.553253 218.564392,142.857651 
	C219.512833,133.981583 222.887863,125.833946 219.177841,116.111710 
	C214.487991,123.720177 204.870834,126.806763 207.417603,137.457520 
	C208.307724,141.180023 206.013199,143.479904 202.087814,143.539169 
	C192.280884,143.687256 182.451935,144.133987 172.676880,143.613785 
	C169.569336,143.448425 166.160141,141.110977 163.672607,138.889847 
	C159.468124,135.135651 155.918503,130.653458 152.037567,126.530067 
	C147.037994,121.218132 143.167160,120.423355 136.360092,123.031616 
	C124.434608,127.601112 116.485657,135.955658 111.985809,147.876389 
	C107.303337,160.280945 107.891090,162.127762 119.688950,167.952164 
	C123.402916,169.785706 127.170349,171.510971 130.913300,173.285782 
	C126.382164,175.579681 122.087959,176.746628 117.730247,177.582443 
	C107.284821,179.585831 96.867798,182.133255 86.133347,179.209045 
	C75.992989,176.446640 70.929916,170.886322 71.985512,160.561783 
	C72.871246,151.898636 75.789597,143.443924 77.797195,134.894379 
	C78.248817,132.971100 78.655563,131.037262 79.082962,129.108292 
	C78.599785,128.840561 78.116600,128.572830 77.633415,128.305115 
	C76.336075,129.573746 74.690186,130.636078 73.797508,132.144241 
	C67.642769,142.542648 62.947895,153.555374 61.465218,165.641296 
	C59.690159,180.110550 66.253990,191.408676 79.470161,197.488022 
	C93.395538,203.893631 107.367401,202.089706 122.122711,197.598572 
M428.875916,118.427269 
	C423.819183,131.839569 431.783508,138.383682 442.500702,143.680450 
	C428.769958,144.099060 415.357635,144.108994 401.945282,144.094849 
	C395.281189,144.087814 394.902069,143.712830 394.899414,136.975571 
	C394.887939,107.656105 394.898163,78.336639 394.883148,49.017181 
	C394.882263,47.330437 394.727661,45.643776 394.644592,43.957073 
	C394.116791,43.751190 393.588989,43.545307 393.061188,43.339424 
	C388.879944,48.788124 384.678192,54.221413 380.555908,59.714348 
	C380.221771,60.159622 380.394043,61.013451 380.394592,61.677372 
	C380.416260,88.830841 380.236725,115.986839 380.566956,143.136627 
	C380.717529,155.514420 386.432587,161.443695 398.694672,161.677963 
	C420.993011,162.103973 443.304993,161.804337 465.611206,161.844528 
	C469.057037,161.850739 470.993561,160.252930 471.152954,156.840698 
	C471.424530,151.027176 471.948181,145.185318 471.644684,139.393143 
	C470.947052,126.080666 469.975861,112.704201 463.799255,100.533806 
	C459.150238,91.373245 450.992554,89.402817 443.930267,96.697174 
	C438.041168,102.779770 433.960541,110.613342 428.875916,118.427269 
M295.811310,195.707947 
	C305.861115,204.074966 316.915253,206.969421 329.156586,201.128952 
	C351.508606,190.464584 366.296051,168.052460 356.654846,139.638672 
	C353.849731,131.371613 349.299683,124.182137 340.839325,119.301445 
	C338.556427,124.095375 336.586853,128.439560 334.427277,132.687134 
	C333.157471,135.184723 333.725830,136.598557 335.845612,138.548935 
	C339.953156,142.328232 344.084503,146.349976 347.032806,151.013031 
	C348.616760,153.518204 349.096191,158.230942 347.802277,160.806076 
	C338.063721,180.187317 321.301880,192.126114 297.135559,185.272873 
	C292.796539,184.042389 288.603638,182.296524 284.343292,180.788620 
	C283.952209,181.189453 283.561127,181.590302 283.170044,181.991150 
	C287.203613,186.409592 291.237152,190.828049 295.811310,195.707947 
M444.237915,72.213036 
	C448.209320,74.509712 452.180695,76.806396 456.426666,79.261871 
	C459.013763,74.870995 461.395020,71.075455 463.465454,67.117317 
	C463.903595,66.279716 463.610718,64.188004 462.967102,63.792225 
	C457.069824,60.165878 451.020782,56.786362 444.642639,53.120281 
	C441.759613,58.332550 439.244263,62.880074 436.609741,67.643021 
	C439.354980,69.299088 441.476074,70.578636 444.237915,72.213036 
z"/>
<path fill="#A8712E" opacity="1.000000" stroke="none" 
	d="
M121.746414,197.717636 
	C107.367401,202.089706 93.395538,203.893631 79.470161,197.488022 
	C66.253990,191.408676 59.690159,180.110550 61.465218,165.641296 
	C62.947895,153.555374 67.642769,142.542648 73.797508,132.144241 
	C74.690186,130.636078 76.336075,129.573746 77.633415,128.305115 
	C78.116600,128.572830 78.599785,128.840561 79.082962,129.108292 
	C78.655563,131.037262 78.248817,132.971100 77.797195,134.894379 
	C75.789597,143.443924 72.871246,151.898636 71.985512,160.561783 
	C70.929916,170.886322 75.992989,176.446640 86.133347,179.209045 
	C96.867798,182.133255 107.284821,179.585831 117.730247,177.582443 
	C122.087959,176.746628 126.382164,175.579681 130.913300,173.285782 
	C127.170349,171.510971 123.402916,169.785706 119.688950,167.952164 
	C107.891090,162.127762 107.303337,160.280945 111.985809,147.876389 
	C116.485657,135.955658 124.434608,127.601112 136.360092,123.031616 
	C143.167160,120.423355 147.037994,121.218132 152.037567,126.530067 
	C155.918503,130.653458 159.468124,135.135651 163.672607,138.889847 
	C166.160141,141.110977 169.569336,143.448425 172.676880,143.613785 
	C182.451935,144.133987 192.280884,143.687256 202.087814,143.539169 
	C206.013199,143.479904 208.307724,141.180023 207.417603,137.457520 
	C204.870834,126.806763 214.487991,123.720177 219.177841,116.111710 
	C222.887863,125.833946 219.512833,133.981583 218.564392,142.857651 
	C222.797256,143.553253 226.809128,144.602524 230.861023,144.790955 
	C237.677490,145.107971 244.520432,144.806580 251.350204,144.905228 
	C255.423416,144.964035 257.966736,143.531555 257.054626,139.091431 
	C254.828293,128.253525 263.655914,124.440681 269.128448,118.478539 
	C269.718536,118.608986 270.308594,118.739426 270.898682,118.869873 
	C270.250946,127.124138 269.603180,135.378403 268.913330,144.168823 
	C274.770447,145.850357 281.103088,146.443985 287.025879,144.015945 
	C292.610260,141.726593 290.271423,136.298233 288.560059,133.203033 
	C286.063690,128.687943 287.751740,126.711067 290.926727,124.236755 
	C293.908630,121.912949 296.626068,119.249794 300.555481,115.764008 
	C301.796936,121.248383 303.342163,125.608383 303.661987,130.056488 
	C304.161926,137.010681 304.112335,144.037842 303.780243,151.009552 
	C303.404541,158.895584 299.664978,162.524170 291.698334,162.972961 
	C281.959351,163.521591 272.478546,162.123383 263.258301,158.726379 
	C261.139771,157.945847 258.228668,157.667984 256.225952,158.487427 
	C242.531342,164.090698 228.870056,162.714493 215.057098,159.198975 
	C213.058914,158.690399 210.680176,159.065018 208.606277,159.564957 
	C194.853638,162.880157 181.034409,163.995132 167.231888,160.319916 
	C164.358429,159.554794 161.591278,157.411926 159.401123,155.265305 
	C155.008911,150.960373 151.320938,145.914810 146.781006,141.793213 
	C144.875320,140.063126 141.121964,138.585281 138.941452,139.283020 
	C132.961929,141.196365 127.516418,144.515060 123.244301,150.977310 
	C129.354813,153.412613 134.981415,155.637772 140.594147,157.897339 
	C145.234375,159.765411 151.405579,160.304626 151.288925,167.168610 
	C151.169815,174.177704 151.970688,181.876648 144.153137,186.057938 
	C136.843277,189.967682 129.468765,193.756516 121.746414,197.717636 
z"/>
<path fill="#A9722F" opacity="1.000000" stroke="none" 
	d="
M428.977448,118.049347 
	C433.960541,110.613342 438.041168,102.779770 443.930267,96.697174 
	C450.992554,89.402817 459.150238,91.373245 463.799255,100.533806 
	C469.975861,112.704201 470.947052,126.080666 471.644684,139.393143 
	C471.948181,145.185318 471.424530,151.027176 471.152954,156.840698 
	C470.993561,160.252930 469.057037,161.850739 465.611206,161.844528 
	C443.304993,161.804337 420.993011,162.103973 398.694672,161.677963 
	C386.432587,161.443695 380.717529,155.514420 380.566956,143.136627 
	C380.236725,115.986839 380.416260,88.830841 380.394592,61.677372 
	C380.394043,61.013451 380.221771,60.159622 380.555908,59.714348 
	C384.678192,54.221413 388.879944,48.788124 393.061188,43.339424 
	C393.588989,43.545307 394.116791,43.751190 394.644592,43.957073 
	C394.727661,45.643776 394.882263,47.330437 394.883148,49.017181 
	C394.898163,78.336639 394.887939,107.656105 394.899414,136.975571 
	C394.902069,143.712830 395.281189,144.087814 401.945282,144.094849 
	C415.357635,144.108994 428.769958,144.099060 442.500702,143.680450 
	C431.783508,138.383682 423.819183,131.839569 428.977448,118.049347 
M458.191162,124.429756 
	C457.472900,122.940323 456.986298,121.269432 455.990204,119.997574 
	C453.603943,116.950729 450.978027,114.091560 448.448883,111.156616 
	C445.393463,114.026520 442.331116,116.889175 439.304321,119.788979 
	C439.161621,119.925735 439.335541,120.392998 439.398071,121.133858 
	C446.026611,124.714897 452.845215,128.398636 459.663849,132.082382 
	C459.939056,131.763138 460.214264,131.443909 460.489471,131.124664 
	C459.843903,129.120560 459.198334,127.116455 458.191162,124.429756 
z"/>
<path fill="#A9722E" opacity="1.000000" stroke="none" 
	d="
M295.541016,195.477219 
	C291.237152,190.828049 287.203613,186.409592 283.170044,181.991150 
	C283.561127,181.590302 283.952209,181.189453 284.343292,180.788620 
	C288.603638,182.296524 292.796539,184.042389 297.135559,185.272873 
	C321.301880,192.126114 338.063721,180.187317 347.802277,160.806076 
	C349.096191,158.230942 348.616760,153.518204 347.032806,151.013031 
	C344.084503,146.349976 339.953156,142.328232 335.845612,138.548935 
	C333.725830,136.598557 333.157471,135.184723 334.427277,132.687134 
	C336.586853,128.439560 338.556427,124.095375 340.839325,119.301445 
	C349.299683,124.182137 353.849731,131.371613 356.654846,139.638672 
	C366.296051,168.052460 351.508606,190.464584 329.156586,201.128952 
	C316.915253,206.969421 305.861115,204.074966 295.541016,195.477219 
z"/>
<path fill="#A9732F" opacity="1.000000" stroke="none" 
	d="
M443.917542,72.035606 
	C441.476074,70.578636 439.354980,69.299088 436.609741,67.643021 
	C439.244263,62.880074 441.759613,58.332550 444.642639,53.120281 
	C451.020782,56.786362 457.069824,60.165878 462.967102,63.792225 
	C463.610718,64.188004 463.903595,66.279716 463.465454,67.117317 
	C461.395020,71.075455 459.013763,74.870995 456.426666,79.261871 
	C452.180695,76.806396 448.209320,74.509712 443.917542,72.035606 
z"/>
<path fill="#F1EAE1" opacity="1.000000" stroke="none" 
	d="
M458.371948,124.771057 
	C459.198334,127.116455 459.843903,129.120560 460.489471,131.124664 
	C460.214264,131.443909 459.939056,131.763138 459.663849,132.082382 
	C452.845215,128.398636 446.026611,124.714897 439.398071,121.133858 
	C439.335541,120.392998 439.161621,119.925735 439.304321,119.788979 
	C442.331116,116.889175 445.393463,114.026520 448.448883,111.156616 
	C450.978027,114.091560 453.603943,116.950729 455.990204,119.997574 
	C456.986298,121.269432 457.472900,122.940323 458.371948,124.771057 
z"/>
</svg>